<svg width="350" height="209" viewBox="0 0 350 209" fill="none" xmlns="http://www.w3.org/2000/svg">
<path d="M316.669 33.2886C335.318 52.0703 345.756 77.4622 345.698 103.908C345.64 130.354 335.091 155.7 316.359 174.4C297.627 193.1 272.239 203.631 245.748 203.689C219.258 203.747 193.823 193.327 175.01 174.709L192.72 157.029C203.226 167.518 216.612 174.662 231.186 177.557C245.759 180.451 260.865 178.967 274.593 173.29C288.321 167.614 300.055 158.001 308.31 145.667C316.565 133.333 320.972 118.833 320.972 103.999C320.972 89.1647 316.565 74.6639 308.31 62.33C300.055 49.9961 288.321 40.3832 274.593 34.7069C260.865 29.0305 245.759 27.5458 231.186 30.4404C216.612 33.335 203.226 40.4788 192.72 50.9686L190.486 53.1886L139.59 103.999L104.18 103.999L157.27 50.9986L173.838 34.4686L174.98 33.3186C184.28 24.0265 195.322 16.6546 207.477 11.624C219.632 6.59346 232.66 4.00279 245.818 4.00001C258.976 3.99722 272.005 6.58237 284.162 11.6078C296.319 16.6332 307.364 24.0004 316.669 33.2886Z" stroke="black" stroke-width="8" stroke-linecap="round" stroke-linejoin="round"/>
<path d="M175.01 33.2885L173.868 34.4385L157.3 50.9685C146.793 40.4787 133.407 33.3348 118.834 30.4402C104.26 27.5457 89.1546 29.0304 75.4265 34.7067C61.6984 40.383 49.9647 49.996 41.7093 62.3298C33.4539 74.6637 29.0476 89.1645 29.0476 103.998C29.0476 118.832 33.4539 133.333 41.7093 145.667C49.9647 158.001 61.6984 167.614 75.4265 173.29C89.1546 178.967 104.26 180.451 118.834 177.557C133.407 174.662 146.794 167.518 157.3 157.029L159.524 154.818L210.409 104.019L245.829 104.019L210.409 139.378L192.71 157.049L175 174.728C160.991 188.714 143.142 198.238 123.712 202.097C104.281 205.956 84.14 203.975 65.8364 196.407C47.5328 188.838 31.8884 176.021 20.8816 159.576C9.87486 143.131 4 123.797 4 104.019C3.99999 84.2403 9.87485 64.9063 20.8816 48.4613C31.8884 32.0163 47.5328 19.1991 65.8364 11.6304C84.14 4.06166 104.281 2.08143 123.712 5.9401C143.142 9.79878 160.991 19.3231 175 33.3085L175.01 33.2885Z" stroke="black" stroke-width="8" stroke-linecap="round" stroke-linejoin="round"/>
<path d="M298.989 50.9685C305.964 57.9345 311.498 66.2039 315.272 75.3046C319.047 84.4054 320.989 94.1592 320.987 104.009C320.986 113.859 319.041 123.612 315.264 132.712C311.487 141.812 305.951 150.08 298.974 157.044C291.996 164.008 283.713 169.531 274.596 173.299C265.48 177.068 255.71 179.006 245.843 179.005C235.977 179.003 226.207 177.062 217.092 173.291C207.977 169.521 199.695 163.995 192.72 157.029L210.419 139.359C217.424 146.35 226.349 151.111 236.064 153.039C245.779 154.967 255.848 153.976 264.999 150.191C274.15 146.406 281.972 139.998 287.474 131.776C292.977 123.554 295.914 113.887 295.914 103.999C295.914 94.11 292.977 84.4436 287.474 76.2214C281.972 67.9992 274.15 61.5906 264.999 57.8058C255.848 54.0211 245.779 53.0301 236.064 54.9583C226.349 56.8865 217.424 61.6472 210.419 68.6385L209.518 69.5486L200.953 78.0886L179.187 99.8285L170.833 108.169L149.066 129.899L139.6 139.349L139.6 103.999L190.496 53.1885L190.496 53.2585C191.207 52.4885 191.938 51.7185 192.689 50.9685C199.667 43.9961 207.952 38.4648 217.072 34.6909C226.191 30.917 235.967 28.9745 245.839 28.9745C255.711 28.9745 265.487 30.917 274.606 34.6909C283.726 38.4648 292.012 43.996 298.989 50.9685Z" stroke="black" stroke-width="8" stroke-linecap="round" stroke-linejoin="round"/>
<path d="M157.3 50.9687L139.6 68.6387C132.595 61.6474 123.671 56.8867 113.956 54.9585C104.241 53.0303 94.171 54.0213 85.0201 57.806C75.8691 61.5908 68.0477 67.9994 62.545 76.2216C57.0422 84.4438 54.1052 94.1102 54.1052 103.999C54.1052 113.887 57.0422 123.554 62.545 131.776C68.0478 139.998 75.8691 146.407 85.0201 150.191C94.171 153.976 104.241 154.967 113.956 153.039C123.671 151.111 132.595 146.35 139.6 139.359L149.066 129.909L170.833 108.179L179.187 99.8388L200.953 78.1087L209.518 69.5687L210.419 68.6587L210.419 103.999L159.534 154.799L159.534 154.739C158.832 155.509 158.101 156.269 157.35 157.019C146.844 167.509 133.457 174.652 118.884 177.547C104.311 180.442 89.2046 178.957 75.4765 173.281C61.7485 167.604 50.0148 157.991 41.7594 145.657C33.504 133.324 29.0977 118.823 29.0977 103.989C29.0977 89.1548 33.504 74.654 41.7594 62.3201C50.0148 49.9862 61.7484 40.3733 75.4765 34.697C89.2046 29.0207 104.311 27.5359 118.884 30.4305C133.457 33.3251 146.844 40.469 157.35 50.9588L157.3 50.9687Z" stroke="black" stroke-width="8" stroke-linecap="round" stroke-linejoin="round"/>
<path d="M104.17 103.999L139.58 103.999L139.58 139.339L121.89 121.669L104.17 103.999Z" stroke="black" stroke-width="8" stroke-linecap="round" stroke-linejoin="round"/>
<path d="M210.419 68.6387L228.129 86.3187L245.839 103.999L210.409 103.999L210.409 68.6487L210.419 68.6387Z" stroke="black" stroke-width="8" stroke-linecap="round" stroke-linejoin="round"/>
</svg>
