<svg width="105" height="62" viewBox="0 0 105 62" fill="none" xmlns="http://www.w3.org/2000/svg">
<path d="M95.1664 9.8208C100.783 15.4773 103.927 23.1245 103.909 31.0892C103.892 39.0538 100.715 46.6873 95.0732 52.3191C89.4318 57.951 81.7855 61.1227 73.8074 61.1401C65.8293 61.1576 58.1691 58.0194 52.5031 52.4122L57.8367 47.0875C61.0009 50.2467 65.0325 52.3983 69.4215 53.27C73.8106 54.1418 78.36 53.6946 82.4945 51.9851C86.629 50.2755 90.1628 47.3804 92.6491 43.6658C95.1354 39.9512 96.4624 35.584 96.4624 31.1165C96.4624 26.649 95.1354 22.2818 92.6491 18.5672C90.1628 14.8526 86.629 11.9575 82.4945 10.2479C78.36 8.53839 73.8106 8.09123 69.4215 8.96299C65.0325 9.83475 61.0009 11.9863 57.8367 15.1455L57.164 15.8141L41.8357 31.1165L31.1714 31.1165L47.1603 15.1545L52.1501 10.1762L52.494 9.82983C55.2949 7.03133 58.6207 4.81114 62.2813 3.29608C65.9419 1.78102 69.8656 1.00079 73.8283 0.999953C77.791 0.999114 81.7151 1.77768 85.3764 3.29119C89.0376 4.80469 92.3643 7.02348 95.1664 9.8208Z" fill="url(#paint0_linear_7:25)" stroke="white" stroke-width="0.903509" stroke-linecap="round" stroke-linejoin="round"/>
<path d="M52.5029 9.82086L52.159 10.1672L47.1692 15.1455C44.0051 11.9863 39.9735 9.83481 35.5845 8.96305C31.1954 8.09129 26.646 8.53845 22.5115 10.248C18.377 11.9575 14.8432 14.8526 12.3569 18.5672C9.87062 22.2818 8.54356 26.649 8.54357 31.1166C8.54357 35.5841 9.87062 39.9513 12.3569 43.6659C14.8432 47.3805 18.377 50.2756 22.5115 51.9851C26.646 53.6947 31.1954 54.1418 35.5845 53.2701C39.9735 52.3983 44.0051 50.2468 47.1692 47.0876L47.839 46.422L63.1642 31.1226L73.8316 31.1226L63.1642 41.7719L57.8336 47.0936L52.4999 52.4183C48.2809 56.6303 42.9055 59.4987 37.0535 60.6608C31.2015 61.8229 25.1357 61.2266 19.6232 58.9471C14.1108 56.6676 9.39915 52.8075 6.08424 47.8547C2.76933 42.902 0.999999 37.0792 0.999999 31.1226C0.999998 25.166 2.76933 19.3432 6.08424 14.3904C9.39914 9.43773 14.1108 5.57755 19.6232 3.29809C25.1357 1.01862 31.2015 0.422238 37.0535 1.58435C42.9055 2.74647 48.2809 5.6149 52.4999 9.82689L52.5029 9.82086Z" fill="url(#paint1_linear_7:25)" stroke="white" stroke-width="0.903509" stroke-linecap="round" stroke-linejoin="round"/>
<path d="M89.8419 15.1455C91.9428 17.2435 93.6092 19.734 94.746 22.4748C95.8827 25.2157 96.4676 28.1532 96.4672 31.1197C96.4668 34.0863 95.8811 37.0236 94.7435 39.7642C93.606 42.5047 91.9389 44.9947 89.8374 47.0921C87.7359 49.1894 85.2412 50.853 82.4957 51.9879C79.7502 53.1227 76.8077 53.7066 73.8362 53.7062C70.8647 53.7058 67.9223 53.121 65.1772 51.9854C62.432 50.8498 59.9377 49.1855 57.8369 47.0876L63.1675 41.7659C65.2772 43.8715 67.9649 45.3053 70.8908 45.886C73.8167 46.4667 76.8493 46.1682 79.6053 45.0284C82.3613 43.8885 84.7169 41.9584 86.3741 39.4822C88.0314 37.0059 88.916 34.0947 88.916 31.1165C88.916 28.1384 88.0314 25.2272 86.3741 22.7509C84.7169 20.2747 82.3613 18.3446 79.6053 17.2047C76.8493 16.0649 73.8167 15.7664 70.8908 16.3471C67.9649 16.9278 65.2772 18.3616 63.1675 20.4672L62.896 20.7413L60.3167 23.3133L53.7612 29.8607L51.2452 32.3724L44.6897 38.9168L41.8389 41.7629L41.8389 31.1165L57.1671 15.8141L57.1671 15.8352C57.3813 15.6033 57.6016 15.3714 57.8278 15.1455C59.9291 13.0456 62.4244 11.3798 65.171 10.2432C67.9176 9.10661 70.8616 8.5216 73.8349 8.5216C76.8081 8.5216 79.7521 9.10661 82.4987 10.2432C85.2453 11.3798 87.7406 13.0456 89.8419 15.1455Z" fill="url(#paint2_linear_7:25)" stroke="white" stroke-width="0.903509" stroke-linecap="round" stroke-linejoin="round"/>
<path d="M47.1692 15.1456L41.8385 20.4672C39.7288 18.3617 37.0411 16.9279 34.1153 16.3472C31.1894 15.7664 28.1567 16.0649 25.4007 17.2047C22.6447 18.3446 20.2892 20.2747 18.6319 22.751C16.9746 25.2272 16.0901 28.1385 16.0901 31.1166C16.0901 34.0947 16.9746 37.0059 18.6319 39.4822C20.2892 41.9585 22.6447 43.8886 25.4007 45.0284C28.1567 46.1683 31.1894 46.4667 34.1153 45.886C37.0411 45.3053 39.7289 43.8715 41.8385 41.7659L44.6894 38.9199L51.2449 32.3755L53.7608 29.8637L60.3163 23.3193L62.8957 20.7473L63.1672 20.4732L63.1672 31.1166L47.8419 46.416L47.8419 46.3979C47.6308 46.6298 47.4105 46.8587 47.1843 47.0846C44.0201 50.2438 39.9885 52.3953 35.5995 53.2671C31.2104 54.1388 26.661 53.6917 22.5265 51.9821C18.392 50.2726 14.8582 47.3775 12.3719 43.6629C9.88564 39.9483 8.55859 35.5811 8.55859 31.1136C8.55859 26.646 9.88564 22.2788 12.3719 18.5642C14.8582 14.8497 18.392 11.9545 22.5265 10.245C26.661 8.53546 31.2104 8.0883 35.5995 8.96006C39.9885 9.83182 44.0201 11.9833 47.1843 15.1426L47.1692 15.1456Z" fill="url(#paint3_linear_7:25)" stroke="white" stroke-width="0.903509" stroke-linecap="round" stroke-linejoin="round"/>
<path d="M31.1682 31.1166L41.8325 31.1166L41.8325 41.7599L36.5049 36.4382L31.1682 31.1166Z" fill="url(#paint4_linear_7:25)" stroke="white" stroke-width="0.903509" stroke-linecap="round" stroke-linejoin="round"/>
<path d="M63.1673 20.4672L68.501 25.7919L73.8347 31.1166L63.1643 31.1166L63.1643 20.4702L63.1673 20.4672Z" fill="url(#paint5_linear_7:25)" stroke="white" stroke-width="0.903509" stroke-linecap="round" stroke-linejoin="round"/>
<defs>
<linearGradient id="paint0_linear_7:25" x1="92.405" y1="5.21592" x2="57.7515" y2="62.6982" gradientUnits="userSpaceOnUse">
<stop stop-color="#E3E3E3"/>
<stop offset="1" stop-color="#363636"/>
</linearGradient>
<linearGradient id="paint1_linear_7:25" x1="60.782" y1="14.4017" x2="18.6368" y2="62.4216" gradientUnits="userSpaceOnUse">
<stop stop-color="#E3E3E3"/>
<stop offset="1" stop-color="#363636"/>
</linearGradient>
<linearGradient id="paint2_linear_7:25" x1="50.4476" y1="46.4977" x2="86.8967" y2="12.0533" gradientUnits="userSpaceOnUse">
<stop stop-color="#E3E3E3"/>
<stop offset="1" stop-color="#363636"/>
</linearGradient>
<linearGradient id="paint3_linear_7:25" x1="17.1642" y1="46.4943" x2="47.3102" y2="6.26084" gradientUnits="userSpaceOnUse">
<stop stop-color="#E3E3E3"/>
<stop offset="1" stop-color="#363636"/>
</linearGradient>
<linearGradient id="paint4_linear_7:25" x1="32.8488" y1="40.0619" x2="41.1976" y2="33.5233" gradientUnits="userSpaceOnUse">
<stop stop-color="#E3E3E3"/>
<stop offset="1" stop-color="#363636"/>
</linearGradient>
<linearGradient id="paint5_linear_7:25" x1="64.8458" y1="29.4177" x2="73.1994" y2="22.8753" gradientUnits="userSpaceOnUse">
<stop stop-color="#E3E3E3"/>
<stop offset="1" stop-color="#363636"/>
</linearGradient>
</defs>
</svg>
